name D:\school\WTK\thesis\model\3dpredictsim\Results\batch_windlass\Pog_s1_tmt_aCst_d05_k1000_WL20_ig24_pas.mot
datacolumns 128
datarows 4
range 1.60827574 1.64044126
endheader
time	pelvis_tilt	pelvis_list	pelvis_rotation	pelvis_tx	pelvis_ty	pelvis_tz	hip_flexion_l	hip_adduction_l	hip_rotation_l	hip_flexion_r	hip_adduction_r	hip_rotation_r	knee_angle_l	knee_angle_r	ankle_angle_l	ankle_angle_r	subtalar_angle_l	subtalar_angle_r	tmt_angle_l	tmt_angle_r	mtp_angle_l	mtp_angle_r	lumbar_extension	lumbar_bending	lumbar_rotation	arm_flex_l	arm_add_l	arm_rot_l	arm_flex_r	arm_add_r	arm_rot_r	elbow_flex_l	elbow_flex_r	pro_sup_l	pro_sup_r	glut_med1_l/activation	glut_med2_l/activation	glut_med3_l/activation	glut_min1_l/activation	glut_min2_l/activation	glut_min3_l/activation	semimem_l/activation	semiten_l/activation	bifemlh_l/activation	bifemsh_l/activation	sar_l/activation	add_long_l/activation	add_brev_l/activation	add_mag1_l/activation	add_mag2_l/activation	add_mag3_l/activation	tfl_l/activation	pect_l/activation	grac_l/activation	glut_max1_l/activation	glut_max2_l/activation	glut_max3_l/activation	iliacus_l/activation	psoas_l/activation	quad_fem_l/activation	gem_l/activation	peri_l/activation	rect_fem_l/activation	vas_med_l/activation	vas_int_l/activation	vas_lat_l/activation	med_gas_l/activation	lat_gas_l/activation	soleus_l/activation	tib_post_l/activation	flex_dig_l/activation	flex_hal_l/activation	tib_ant_l/activation	per_brev_l/activation	per_long_l/activation	per_tert_l/activation	ext_dig_l/activation	ext_hal_l/activation	ercspn_l/activation	intobl_l/activation	extobl_l/activation	glut_med1_r/activation	glut_med2_r/activation	glut_med3_r/activation	glut_min1_r/activation	glut_min2_r/activation	glut_min3_r/activation	semimem_r/activation	semiten_r/activation	bifemlh_r/activation	bifemsh_r/activation	sar_r/activation	add_long_r/activation	add_brev_r/activation	add_mag1_r/activation	add_mag2_r/activation	add_mag3_r/activation	tfl_r/activation	pect_r/activation	grac_r/activation	glut_max1_r/activation	glut_max2_r/activation	glut_max3_r/activation	iliacus_r/activation	psoas_r/activation	quad_fem_r/activation	gem_r/activation	peri_r/activation	rect_fem_r/activation	vas_med_r/activation	vas_int_r/activation	vas_lat_r/activation	med_gas_r/activation	lat_gas_r/activation	soleus_r/activation	tib_post_r/activation	flex_dig_r/activation	flex_hal_r/activation	tib_ant_r/activation	per_brev_r/activation	per_long_r/activation	per_tert_r/activation	ext_dig_r/activation	ext_hal_r/activation	ercspn_r/activation	intobl_r/activation	extobl_r/activation	
          1.60827574	         -2.91839980	          1.48477256	         -6.06142887	          2.01034468	          0.85584982	          0.00254656	         31.91280096	          2.23603027	         -3.76726019	        -18.65413837	         -1.49913065	          7.99441438	        -19.41511373	         -9.20541215	         -0.93714678	         -0.88745428	         -1.99237551	         11.74004675	         -0.11399319	         -5.40687402	          0.62143851	         28.11951647	         -1.07071194	          0.21627625	          1.85448050	         -8.66225066	        -13.64018554	          9.11285760	          5.43030386	        -13.48625161	         16.66109381	         16.37230352	         33.70587969	         86.51662706	         86.51662706	          0.05002798	          0.05000025	          0.05000050	          0.05000019	          0.05000021	          0.05000044	          0.05893490	          0.05893489	          0.20690253	          0.05000011	          0.05000009	          0.11274847	          0.16279816	          0.21959583	          0.19432214	          0.13480334	          0.05000044	          0.05563592	          0.05894844	          0.05248263	          0.14178033	          0.13889532	          0.05892855	          0.05893763	          0.23190913	          0.05000045	          0.05000016	          0.05000009	          0.13927884	          0.14059067	          0.11924841	          0.05893486	          0.05893487	          0.05893485	          0.05000000	          0.05000022	          0.05000046	          0.45902476	          0.25763364	          0.15273054	          0.42750271	          0.60170422	          0.05000006	          0.05000002	          0.10473916	          0.10468190	          0.23593883	          0.08187984	          0.05000002	          0.27907711	          0.17446616	          0.08189300	          0.05000151	          0.05000011	          0.05000007	          0.06901091	          0.08564770	          0.18360296	          0.08156071	          0.05000142	          0.05000257	          0.05000179	          0.29563912	          0.06647521	          0.05000020	          0.05000092	          0.05000076	          0.05000080	          0.33618173	          0.57705428	          0.05000005	          0.05000013	          0.05000003	          0.25887242	          0.12017094	          0.05008138	          0.09540614	          0.28182118	          0.35829339	          0.22958470	          0.20152080	          0.19482085	          0.26951265	          0.05000000	          0.09585511	          0.15785015	          0.05000003	          0.05000000	          0.05000002	          0.05000000	          0.05000021	          0.05000003	
          1.61899758	         -2.90482013	          1.59344035	         -6.33322026	          2.02695082	          0.85470000	          0.00236455	         31.30655656	          2.66360540	         -3.52175157	        -18.37536946	         -1.82046672	          7.80889694	        -19.42234935	        -11.31099313	         -1.32286378	         -1.89102377	         -2.71511847	         12.75617277	         -0.14021150	         -5.81459819	          0.77231069	         28.94771534	         -0.84134099	         -0.03586949	          1.92182005	         -9.73658499	        -13.63948775	          8.89607697	          5.13896742	        -13.52389520	         16.94388274	         16.31074480	         34.73973907	         86.51662706	         86.51662706	          0.05000002	          0.05000009	          0.05890722	          0.05000005	          0.05000008	          0.05000011	          0.05000005	          0.05000008	          0.17553505	          0.05000011	          0.05893423	          0.09565522	          0.13811707	          0.33956246	          0.25421338	          0.13557609	          0.05000008	          0.05000063	          0.05001162	          0.05893479	          0.15578526	          0.14754560	          0.05000006	          0.05000246	          0.48909755	          0.08189671	          0.06452551	          0.06946632	          0.22845293	          0.22308069	          0.19270038	          0.05000000	          0.05000001	          0.05000000	          0.05000037	          0.05893446	          0.05000015	          0.59368319	          0.21857491	          0.12957572	          0.46728131	          0.62099570	          0.12688053	          0.05000000	          0.08886010	          0.08881152	          0.20016917	          0.06946639	          0.05000026	          0.23676746	          0.14801611	          0.06947757	          0.05000096	          0.05000013	          0.05000020	          0.05854849	          0.07266314	          0.24624440	          0.21356068	          0.09009259	          0.05000116	          0.05000026	          0.25081927	          0.12165732	          0.05751085	          0.05000055	          0.05000028	          0.05000025	          0.28521466	          0.51314087	          0.05000022	          0.05893441	          0.05893487	          0.21962589	          0.10195251	          0.15804638	          0.15394346	          0.23909547	          0.30397405	          0.19477834	          0.17096909	          0.16528493	          0.22865301	          0.05002679	          0.08132294	          0.13391919	          0.05000005	          0.06662688	          0.05000018	          0.05008817	          0.06946635	          0.05893240	
          1.62971942	         -2.88742043	          1.71319949	         -6.57827530	          2.04377129	          0.85343398	          0.00219880	         30.54540664	          3.05100388	         -3.19107199	        -18.01052165	         -2.13520614	          7.61079000	        -19.92216759	        -13.56661431	         -1.49198639	         -2.98590773	         -3.49534107	         13.69913888	         -0.29634074	         -6.14431492	          0.90371614	         29.34256904	         -0.59588565	         -0.30564947	          1.97691735	        -10.80317061	        -13.64714540	          8.75685630	          4.77549976	        -13.56717372	         17.15479351	         16.23875994	         35.77810988	         86.51662706	         86.51662706	          0.30451285	          0.31692584	          0.39916069	          0.18497272	          0.05000027	          0.35673503	          0.08760369	          0.05000028	          0.15740657	          0.05000003	          0.05000012	          0.08185032	          0.24603136	          0.28808293	          0.23385793	          0.17294960	          0.05000009	          0.06946468	          0.13041984	          0.05000004	          0.20704703	          0.16138750	          0.05893483	          0.05000040	          0.41494756	          0.06948074	          0.23568423	          0.05893483	          0.23532425	          0.24318957	          0.20871007	          0.05893486	          0.05893486	          0.05893486	          0.05000002	          0.05000009	          0.05000083	          0.53521760	          0.18543771	          0.10993130	          0.39643885	          0.58732817	          0.10764472	          0.05000004	          0.08188003	          0.07534718	          0.24486926	          0.05893490	          0.05000003	          0.20087224	          0.12557604	          0.05894438	          0.06585848	          0.05000014	          0.05000015	          0.05000002	          0.06164706	          0.22321183	          0.33189769	          0.07643462	          0.05893571	          0.11384575	          0.28999662	          0.10321379	          0.05000073	          0.05000488	          0.05001289	          0.05892731	          0.24197449	          0.47658770	          0.05000040	          0.05000027	          0.05000003	          0.18632935	          0.08662445	          0.13408571	          0.13060482	          0.20284722	          0.25788983	          0.16524882	          0.14504920	          0.14022682	          0.19398792	          0.14348116	          0.16962717	          0.16329228	          0.05000275	          0.19448592	          0.12298250	          0.07656574	          0.05893486	          0.05000007	
          1.64044126	         -2.86923227	          1.83682343	         -6.79140593	          2.06055279	          0.85215731	          0.00202528	         29.64466577	          3.41980229	         -2.84573918	        -17.51437194	         -2.43147329	          7.40860078	        -20.38946155	        -16.03090334	         -1.40178855	         -4.08943314	         -4.29936366	         14.55571946	         -0.47207702	         -6.24994473	          1.06660235	         28.88795070	         -0.35712673	         -0.58169963	          2.02069090	        -11.79984243	        -13.65738188	          8.72106357	          4.38498351	        -13.61248989	         17.30914896	         16.11391565	         36.78199430	         86.51662706	         86.51662706	          0.40195337	          0.48141033	          0.54821223	          0.26239201	          0.38623735	          0.37452586	          0.07432252	          0.11046766	          0.13354284	          0.06946612	          0.05000016	          0.06944135	          0.20873160	          0.24440796	          0.20107250	          0.18221583	          0.05000007	          0.05893353	          0.11064763	          0.29365621	          0.26034829	          0.18831754	          0.05000001	          0.05000001	          0.35203914	          0.05894739	          0.19995353	          0.05000000	          0.30654905	          0.32014267	          0.27329097	          0.05000000	          0.05000001	          0.05000000	          0.12209304	          0.05005729	          0.05000019	          0.65684483	          0.15732429	          0.09326509	          0.37539550	          0.58577222	          0.34663224	          0.06628182	          0.06946656	          0.06392412	          0.20774569	          0.05000006	          0.05000001	          0.17041973	          0.10653802	          0.05000810	          0.09101811	          0.05000010	          0.05000010	          0.05000008	          0.05231314	          0.23648402	          0.28158013	          0.06484674	          0.05000085	          0.09658625	          0.31167369	          0.08756614	          0.05000010	          0.05000025	          0.05000015	          0.05000009	          0.20528978	          0.43669995	          0.05000001	          0.05000009	          0.05000005	          0.15808077	          0.07349172	          0.11375758	          0.11080441	          0.17209441	          0.21879225	          0.14019615	          0.12305895	          0.11896770	          0.16457832	          0.17786852	          0.14391076	          0.13853625	          0.15604548	          0.21502654	          0.10433776	          0.10850951	          0.05000000	          0.05000001	
